# xmcd CD database file
#
# Track frame offsets:
#	222
#	17778
#	37660
#	54456
#	72865
#	89172
#	103116
#	124794
#	137875
#	153316
#	174139
#	189053
#	208140
#
# Disc length: 3037 seconds
#
# Revision: 2
# Processed by: cddbd v1.5.1PL2 Copyright (c) Steve Scherf et al.
# Submitted via: jetAudio 5
#
DISCID=aa0bdb0d
DTITLE=Sonya Sanscartier - Djelem (The Bridge)
DYEAR=1900
DGENRE=
TTITLE0=Liouba (L'enfant précieux)
TTITLE1=Snova Sliskou (J'entend ta voix)
TTITLE2=Diri, diri, so kerjan?
TTITLE3=Chior daca dou de necaz
TTITLE4=India song
TTITLE5=Vostan Hayrenik (La capitale de mon pays)
TTITLE6=Je rêve encore
TTITLE7=Sirba roumaine
TTITLE8=Scarab
TTITLE9=Les bateliers de Volga
TTITLE10=Doina de sergei
TTITLE11=The bridge
TTITLE12=Liouba (En russe)
EXTD=
EXTT0=
EXTT1=
EXTT2=
EXTT3=
EXTT4=
EXTT5=
EXTT6=
EXTT7=
EXTT8=
EXTT9=
EXTT10=
EXTT11=
EXTT12=
PLAYORDER=
